<mxfile host="Electron" modified="2024-06-25T15:29:28.749Z" agent="Mozilla/5.0 (Windows NT 10.0; Win64; x64) AppleWebKit/537.36 (KHTML, like Gecko) draw.io/24.6.1 Chrome/124.0.6367.207 Electron/30.0.6 Safari/537.36" etag="SnlEHj5F8p_ylMEwRDUy" version="24.6.1" type="device">
  <diagram name="Page-1" id="c7558073-3199-34d8-9f00-42111426c3f3">
    <mxGraphModel dx="3915" dy="2688" grid="0" gridSize="10" guides="0" tooltips="1" connect="1" arrows="1" fold="1" page="0" pageScale="1" pageWidth="826" pageHeight="1169" background="none" math="0" shadow="0">
      <root>
        <mxCell id="0" />
        <mxCell id="1" parent="0" />
        <mxCell id="Xa-99icX76XOGyTgmu79-111" value="" style="rounded=0;whiteSpace=wrap;html=1;fillColor=none;align=center;" vertex="1" parent="1">
          <mxGeometry x="1080" y="-70" width="560" height="250" as="geometry" />
        </mxCell>
        <mxCell id="Xa-99icX76XOGyTgmu79-109" value="" style="rounded=0;whiteSpace=wrap;html=1;fillColor=none;align=center;" vertex="1" parent="1">
          <mxGeometry x="799" y="290" width="370" height="250" as="geometry" />
        </mxCell>
        <mxCell id="Xa-99icX76XOGyTgmu79-107" value="" style="rounded=0;whiteSpace=wrap;html=1;fillColor=none;align=center;" vertex="1" parent="1">
          <mxGeometry x="1259" y="290" width="362" height="250" as="geometry" />
        </mxCell>
        <mxCell id="mVXSHvILS6m2LbovHZ73-201" value="" style="rounded=0;whiteSpace=wrap;html=1;fillColor=none;align=center;" parent="1" vertex="1">
          <mxGeometry x="-570" y="-350" width="432" height="360" as="geometry" />
        </mxCell>
        <mxCell id="mVXSHvILS6m2LbovHZ73-200" value="" style="rounded=0;whiteSpace=wrap;html=1;fillColor=none;align=center;" parent="1" vertex="1">
          <mxGeometry x="-570" y="75" width="600" height="280" as="geometry" />
        </mxCell>
        <mxCell id="mVXSHvILS6m2LbovHZ73-199" value="" style="rounded=0;whiteSpace=wrap;html=1;fillColor=none;align=center;" parent="1" vertex="1">
          <mxGeometry x="1092" y="-480" width="560" height="250" as="geometry" />
        </mxCell>
        <mxCell id="mVXSHvILS6m2LbovHZ73-198" value="" style="rounded=0;whiteSpace=wrap;html=1;fillColor=none;align=center;" parent="1" vertex="1">
          <mxGeometry x="1092" y="-1040" width="560" height="415" as="geometry" />
        </mxCell>
        <mxCell id="mVXSHvILS6m2LbovHZ73-197" value="" style="rounded=0;whiteSpace=wrap;html=1;fillColor=none;align=center;" parent="1" vertex="1">
          <mxGeometry x="250" y="-1117.5" width="732" height="495" as="geometry" />
        </mxCell>
        <mxCell id="mVXSHvILS6m2LbovHZ73-196" value="" style="rounded=0;whiteSpace=wrap;html=1;fillColor=none;align=center;strokeColor=#A3A3A3;" parent="1" vertex="1">
          <mxGeometry x="-520" y="-1130" width="530" height="170" as="geometry" />
        </mxCell>
        <mxCell id="mVXSHvILS6m2LbovHZ73-195" value="" style="rounded=0;whiteSpace=wrap;html=1;fillColor=none;align=center;" parent="1" vertex="1">
          <mxGeometry x="-560" y="-870" width="710" height="415" as="geometry" />
        </mxCell>
        <mxCell id="mVXSHvILS6m2LbovHZ73-97" value="Master Data (producer)" style="rounded=1;whiteSpace=wrap;html=1;" parent="1" vertex="1">
          <mxGeometry x="-760" y="-1120" width="120" height="60" as="geometry" />
        </mxCell>
        <mxCell id="mVXSHvILS6m2LbovHZ73-98" value="Read Data (Consumer)" style="rounded=1;whiteSpace=wrap;html=1;strokeColor=#00AD12;fillColor=#EDFFF0;" parent="1" vertex="1">
          <mxGeometry x="-760" y="-1030" width="120" height="60" as="geometry" />
        </mxCell>
        <mxCell id="mVXSHvILS6m2LbovHZ73-104" value="" style="endArrow=classic;html=1;rounded=0;dashed=1;strokeColor=#237528;strokeWidth=3;" parent="1" edge="1">
          <mxGeometry width="50" height="50" relative="1" as="geometry">
            <mxPoint x="-760" y="-940" as="sourcePoint" />
            <mxPoint x="-640" y="-940" as="targetPoint" />
          </mxGeometry>
        </mxCell>
        <mxCell id="mVXSHvILS6m2LbovHZ73-106" value="streaming" style="text;html=1;align=center;verticalAlign=middle;whiteSpace=wrap;rounded=0;strokeWidth=3;" parent="1" vertex="1">
          <mxGeometry x="-740" y="-960" width="80" height="30" as="geometry" />
        </mxCell>
        <mxCell id="mVXSHvILS6m2LbovHZ73-109" value="" style="edgeStyle=orthogonalEdgeStyle;rounded=0;orthogonalLoop=1;jettySize=auto;html=1;" parent="1" source="mVXSHvILS6m2LbovHZ73-107" target="mVXSHvILS6m2LbovHZ73-108" edge="1">
          <mxGeometry relative="1" as="geometry" />
        </mxCell>
        <mxCell id="mVXSHvILS6m2LbovHZ73-110" value="has_many" style="edgeLabel;html=1;align=center;verticalAlign=middle;resizable=0;points=[];" parent="mVXSHvILS6m2LbovHZ73-109" vertex="1" connectable="0">
          <mxGeometry x="-0.0593" y="-3" relative="1" as="geometry">
            <mxPoint as="offset" />
          </mxGeometry>
        </mxCell>
        <mxCell id="mVXSHvILS6m2LbovHZ73-107" value="клиент" style="rounded=1;whiteSpace=wrap;html=1;" parent="1" vertex="1">
          <mxGeometry x="-300" y="-835" width="120" height="60" as="geometry" />
        </mxCell>
        <mxCell id="mVXSHvILS6m2LbovHZ73-113" style="edgeStyle=orthogonalEdgeStyle;rounded=0;orthogonalLoop=1;jettySize=auto;html=1;entryX=1;entryY=0.5;entryDx=0;entryDy=0;" parent="1" source="mVXSHvILS6m2LbovHZ73-108" target="mVXSHvILS6m2LbovHZ73-112" edge="1">
          <mxGeometry relative="1" as="geometry">
            <mxPoint x="-330" y="-655" as="targetPoint" />
          </mxGeometry>
        </mxCell>
        <mxCell id="mVXSHvILS6m2LbovHZ73-114" value="has_one" style="edgeLabel;html=1;align=center;verticalAlign=middle;resizable=0;points=[];" parent="mVXSHvILS6m2LbovHZ73-113" vertex="1" connectable="0">
          <mxGeometry x="-0.0444" y="2" relative="1" as="geometry">
            <mxPoint as="offset" />
          </mxGeometry>
        </mxCell>
        <mxCell id="mVXSHvILS6m2LbovHZ73-122" value="" style="edgeStyle=orthogonalEdgeStyle;rounded=0;orthogonalLoop=1;jettySize=auto;html=1;" parent="1" source="mVXSHvILS6m2LbovHZ73-108" target="mVXSHvILS6m2LbovHZ73-121" edge="1">
          <mxGeometry relative="1" as="geometry" />
        </mxCell>
        <mxCell id="mVXSHvILS6m2LbovHZ73-123" value="has_many" style="edgeLabel;html=1;align=center;verticalAlign=middle;resizable=0;points=[];" parent="mVXSHvILS6m2LbovHZ73-122" vertex="1" connectable="0">
          <mxGeometry x="-0.1216" y="-1" relative="1" as="geometry">
            <mxPoint as="offset" />
          </mxGeometry>
        </mxCell>
        <mxCell id="mVXSHvILS6m2LbovHZ73-108" value="задача" style="rounded=1;whiteSpace=wrap;html=1;" parent="1" vertex="1">
          <mxGeometry x="-300" y="-685" width="120" height="60" as="geometry" />
        </mxCell>
        <mxCell id="mVXSHvILS6m2LbovHZ73-165" style="edgeStyle=orthogonalEdgeStyle;rounded=0;orthogonalLoop=1;jettySize=auto;html=1;entryX=1;entryY=0.5;entryDx=0;entryDy=0;" parent="1" source="mVXSHvILS6m2LbovHZ73-111" target="mVXSHvILS6m2LbovHZ73-162" edge="1">
          <mxGeometry relative="1" as="geometry" />
        </mxCell>
        <mxCell id="mVXSHvILS6m2LbovHZ73-166" value="has_many" style="edgeLabel;html=1;align=center;verticalAlign=middle;resizable=0;points=[];" parent="mVXSHvILS6m2LbovHZ73-165" vertex="1" connectable="0">
          <mxGeometry x="0.2275" y="2" relative="1" as="geometry">
            <mxPoint as="offset" />
          </mxGeometry>
        </mxCell>
        <mxCell id="mVXSHvILS6m2LbovHZ73-111" value="менеджер" style="rounded=1;whiteSpace=wrap;html=1;fillColor=#EDFFF0;strokeColor=#00AD12;" parent="1" vertex="1">
          <mxGeometry x="-310" y="-80" width="120" height="60" as="geometry" />
        </mxCell>
        <mxCell id="mVXSHvILS6m2LbovHZ73-112" value="услуга" style="rounded=1;whiteSpace=wrap;html=1;" parent="1" vertex="1">
          <mxGeometry x="-510" y="-685" width="120" height="60" as="geometry" />
        </mxCell>
        <mxCell id="mVXSHvILS6m2LbovHZ73-155" style="edgeStyle=orthogonalEdgeStyle;rounded=0;orthogonalLoop=1;jettySize=auto;html=1;entryX=0.5;entryY=0;entryDx=0;entryDy=0;" parent="1" source="mVXSHvILS6m2LbovHZ73-115" target="mVXSHvILS6m2LbovHZ73-150" edge="1">
          <mxGeometry relative="1" as="geometry">
            <mxPoint x="591" y="-737.5" as="targetPoint" />
          </mxGeometry>
        </mxCell>
        <mxCell id="mVXSHvILS6m2LbovHZ73-157" value="has_many" style="edgeLabel;html=1;align=center;verticalAlign=middle;resizable=0;points=[];" parent="mVXSHvILS6m2LbovHZ73-155" vertex="1" connectable="0">
          <mxGeometry x="-0.3659" y="-1" relative="1" as="geometry">
            <mxPoint as="offset" />
          </mxGeometry>
        </mxCell>
        <mxCell id="Xa-99icX76XOGyTgmu79-66" style="edgeStyle=orthogonalEdgeStyle;rounded=0;orthogonalLoop=1;jettySize=auto;html=1;exitX=0.5;exitY=0;exitDx=0;exitDy=0;entryX=0.5;entryY=1;entryDx=0;entryDy=0;" edge="1" parent="1" source="mVXSHvILS6m2LbovHZ73-115" target="Xa-99icX76XOGyTgmu79-65">
          <mxGeometry relative="1" as="geometry" />
        </mxCell>
        <mxCell id="Xa-99icX76XOGyTgmu79-67" value="has_one" style="edgeLabel;html=1;align=center;verticalAlign=middle;resizable=0;points=[];" vertex="1" connectable="0" parent="Xa-99icX76XOGyTgmu79-66">
          <mxGeometry x="0.1633" y="-4" relative="1" as="geometry">
            <mxPoint x="-1" as="offset" />
          </mxGeometry>
        </mxCell>
        <mxCell id="Xa-99icX76XOGyTgmu79-77" style="edgeStyle=orthogonalEdgeStyle;rounded=0;orthogonalLoop=1;jettySize=auto;html=1;exitX=1;exitY=0.5;exitDx=0;exitDy=0;" edge="1" parent="1" source="mVXSHvILS6m2LbovHZ73-115" target="mVXSHvILS6m2LbovHZ73-133">
          <mxGeometry relative="1" as="geometry" />
        </mxCell>
        <mxCell id="Xa-99icX76XOGyTgmu79-78" value="has_many" style="edgeLabel;html=1;align=center;verticalAlign=middle;resizable=0;points=[];" vertex="1" connectable="0" parent="Xa-99icX76XOGyTgmu79-77">
          <mxGeometry x="-0.2642" y="-3" relative="1" as="geometry">
            <mxPoint as="offset" />
          </mxGeometry>
        </mxCell>
        <mxCell id="Xa-99icX76XOGyTgmu79-82" style="edgeStyle=orthogonalEdgeStyle;rounded=0;orthogonalLoop=1;jettySize=auto;html=1;exitX=0;exitY=0.5;exitDx=0;exitDy=0;" edge="1" parent="1" source="mVXSHvILS6m2LbovHZ73-115" target="mVXSHvILS6m2LbovHZ73-172">
          <mxGeometry relative="1" as="geometry" />
        </mxCell>
        <mxCell id="Xa-99icX76XOGyTgmu79-83" value="has_one" style="edgeLabel;html=1;align=center;verticalAlign=middle;resizable=0;points=[];" vertex="1" connectable="0" parent="Xa-99icX76XOGyTgmu79-82">
          <mxGeometry x="0.0645" y="-2" relative="1" as="geometry">
            <mxPoint as="offset" />
          </mxGeometry>
        </mxCell>
        <mxCell id="Xa-99icX76XOGyTgmu79-85" style="edgeStyle=orthogonalEdgeStyle;rounded=0;orthogonalLoop=1;jettySize=auto;html=1;exitX=0;exitY=1;exitDx=0;exitDy=0;" edge="1" parent="1" source="mVXSHvILS6m2LbovHZ73-115" target="Xa-99icX76XOGyTgmu79-68">
          <mxGeometry relative="1" as="geometry" />
        </mxCell>
        <mxCell id="Xa-99icX76XOGyTgmu79-86" value="has_one" style="edgeLabel;html=1;align=center;verticalAlign=middle;resizable=0;points=[];" vertex="1" connectable="0" parent="Xa-99icX76XOGyTgmu79-85">
          <mxGeometry x="-0.1475" y="-1" relative="1" as="geometry">
            <mxPoint as="offset" />
          </mxGeometry>
        </mxCell>
        <mxCell id="mVXSHvILS6m2LbovHZ73-115" value="Акаунт кота" style="rounded=1;whiteSpace=wrap;html=1;" parent="1" vertex="1">
          <mxGeometry x="556" y="-987.5" width="120" height="60" as="geometry" />
        </mxCell>
        <mxCell id="mVXSHvILS6m2LbovHZ73-116" value="правила расчета стоимости задачи" style="rounded=1;whiteSpace=wrap;html=1;" parent="1" vertex="1">
          <mxGeometry x="-520" y="-835" width="120" height="60" as="geometry" />
        </mxCell>
        <mxCell id="mVXSHvILS6m2LbovHZ73-117" value="под вопросом" style="text;html=1;align=center;verticalAlign=middle;whiteSpace=wrap;rounded=0;strokeColor=none;" parent="1" vertex="1">
          <mxGeometry x="-520" y="-855" width="120" height="30" as="geometry" />
        </mxCell>
        <mxCell id="mVXSHvILS6m2LbovHZ73-119" value="" style="edgeStyle=orthogonalEdgeStyle;rounded=0;orthogonalLoop=1;jettySize=auto;html=1;exitX=0;exitY=0.5;exitDx=0;exitDy=0;" parent="1" source="Xa-99icX76XOGyTgmu79-14" target="mVXSHvILS6m2LbovHZ73-108" edge="1">
          <mxGeometry relative="1" as="geometry" />
        </mxCell>
        <mxCell id="mVXSHvILS6m2LbovHZ73-120" value="has_many" style="edgeLabel;html=1;align=center;verticalAlign=middle;resizable=0;points=[];" parent="mVXSHvILS6m2LbovHZ73-119" vertex="1" connectable="0">
          <mxGeometry x="-0.1385" y="4" relative="1" as="geometry">
            <mxPoint as="offset" />
          </mxGeometry>
        </mxCell>
        <mxCell id="mVXSHvILS6m2LbovHZ73-121" value="фото" style="rounded=1;whiteSpace=wrap;html=1;" parent="1" vertex="1">
          <mxGeometry x="-300" y="-540" width="120" height="60" as="geometry" />
        </mxCell>
        <mxCell id="mVXSHvILS6m2LbovHZ73-126" value="" style="edgeStyle=orthogonalEdgeStyle;rounded=0;orthogonalLoop=1;jettySize=auto;html=1;" parent="1" source="mVXSHvILS6m2LbovHZ73-124" target="Xa-99icX76XOGyTgmu79-90" edge="1">
          <mxGeometry relative="1" as="geometry">
            <mxPoint x="1210" y="-732.4999999999998" as="targetPoint" />
          </mxGeometry>
        </mxCell>
        <mxCell id="mVXSHvILS6m2LbovHZ73-127" value="has_many" style="edgeLabel;html=1;align=center;verticalAlign=middle;resizable=0;points=[];" parent="mVXSHvILS6m2LbovHZ73-126" vertex="1" connectable="0">
          <mxGeometry x="-0.2762" y="-2" relative="1" as="geometry">
            <mxPoint as="offset" />
          </mxGeometry>
        </mxCell>
        <mxCell id="mVXSHvILS6m2LbovHZ73-129" value="" style="edgeStyle=orthogonalEdgeStyle;rounded=0;orthogonalLoop=1;jettySize=auto;html=1;" parent="1" source="mVXSHvILS6m2LbovHZ73-124" target="mVXSHvILS6m2LbovHZ73-128" edge="1">
          <mxGeometry relative="1" as="geometry" />
        </mxCell>
        <mxCell id="mVXSHvILS6m2LbovHZ73-130" value="has_one" style="edgeLabel;html=1;align=center;verticalAlign=middle;resizable=0;points=[];" parent="mVXSHvILS6m2LbovHZ73-129" vertex="1" connectable="0">
          <mxGeometry x="-0.0583" y="4" relative="1" as="geometry">
            <mxPoint as="offset" />
          </mxGeometry>
        </mxCell>
        <mxCell id="Xa-99icX76XOGyTgmu79-148" style="edgeStyle=orthogonalEdgeStyle;rounded=0;orthogonalLoop=1;jettySize=auto;html=1;exitX=1;exitY=0;exitDx=0;exitDy=0;entryX=0;entryY=1;entryDx=0;entryDy=0;" edge="1" parent="1" source="mVXSHvILS6m2LbovHZ73-124" target="Xa-99icX76XOGyTgmu79-147">
          <mxGeometry relative="1" as="geometry" />
        </mxCell>
        <mxCell id="Xa-99icX76XOGyTgmu79-149" value="has_many" style="edgeLabel;html=1;align=center;verticalAlign=middle;resizable=0;points=[];" vertex="1" connectable="0" parent="Xa-99icX76XOGyTgmu79-148">
          <mxGeometry x="-0.0209" relative="1" as="geometry">
            <mxPoint as="offset" />
          </mxGeometry>
        </mxCell>
        <mxCell id="mVXSHvILS6m2LbovHZ73-124" value="заявка в воркеры" style="rounded=1;whiteSpace=wrap;html=1;" parent="1" vertex="1">
          <mxGeometry x="1150" y="-862.5" width="120" height="60" as="geometry" />
        </mxCell>
        <mxCell id="mVXSHvILS6m2LbovHZ73-131" style="edgeStyle=orthogonalEdgeStyle;rounded=0;orthogonalLoop=1;jettySize=auto;html=1;" parent="1" source="mVXSHvILS6m2LbovHZ73-128" target="Xa-99icX76XOGyTgmu79-90" edge="1">
          <mxGeometry relative="1" as="geometry">
            <Array as="points">
              <mxPoint x="1450" y="-702.5" />
            </Array>
            <mxPoint x="1270" y="-702.4999999999998" as="targetPoint" />
          </mxGeometry>
        </mxCell>
        <mxCell id="mVXSHvILS6m2LbovHZ73-132" value="has_many" style="edgeLabel;html=1;align=center;verticalAlign=middle;resizable=0;points=[];" parent="mVXSHvILS6m2LbovHZ73-131" vertex="1" connectable="0">
          <mxGeometry x="0.4738" y="2" relative="1" as="geometry">
            <mxPoint as="offset" />
          </mxGeometry>
        </mxCell>
        <mxCell id="mVXSHvILS6m2LbovHZ73-128" value="вакансия" style="rounded=1;whiteSpace=wrap;html=1;" parent="1" vertex="1">
          <mxGeometry x="1390" y="-862.5" width="120" height="60" as="geometry" />
        </mxCell>
        <mxCell id="mVXSHvILS6m2LbovHZ73-152" style="edgeStyle=orthogonalEdgeStyle;rounded=0;orthogonalLoop=1;jettySize=auto;html=1;exitX=0.5;exitY=1;exitDx=0;exitDy=0;entryX=1;entryY=0.5;entryDx=0;entryDy=0;" parent="1" source="mVXSHvILS6m2LbovHZ73-133" target="mVXSHvILS6m2LbovHZ73-150" edge="1">
          <mxGeometry relative="1" as="geometry" />
        </mxCell>
        <mxCell id="mVXSHvILS6m2LbovHZ73-153" value="has_one" style="edgeLabel;html=1;align=center;verticalAlign=middle;resizable=0;points=[];" parent="mVXSHvILS6m2LbovHZ73-152" vertex="1" connectable="0">
          <mxGeometry x="-0.2503" y="-4" relative="1" as="geometry">
            <mxPoint as="offset" />
          </mxGeometry>
        </mxCell>
        <mxCell id="mVXSHvILS6m2LbovHZ73-133" value="Проводка (история переводов денег)" style="rounded=1;whiteSpace=wrap;html=1;" parent="1" vertex="1">
          <mxGeometry x="780" y="-987.5" width="120" height="60" as="geometry" />
        </mxCell>
        <mxCell id="Xa-99icX76XOGyTgmu79-38" style="edgeStyle=orthogonalEdgeStyle;rounded=0;orthogonalLoop=1;jettySize=auto;html=1;exitX=0.25;exitY=0;exitDx=0;exitDy=0;entryX=0.5;entryY=1;entryDx=0;entryDy=0;" edge="1" parent="1" source="mVXSHvILS6m2LbovHZ73-137" target="Xa-99icX76XOGyTgmu79-21">
          <mxGeometry relative="1" as="geometry" />
        </mxCell>
        <mxCell id="Xa-99icX76XOGyTgmu79-39" value="has_many" style="edgeLabel;html=1;align=center;verticalAlign=middle;resizable=0;points=[];" vertex="1" connectable="0" parent="Xa-99icX76XOGyTgmu79-38">
          <mxGeometry x="-0.1913" y="1" relative="1" as="geometry">
            <mxPoint as="offset" />
          </mxGeometry>
        </mxCell>
        <mxCell id="Xa-99icX76XOGyTgmu79-40" style="edgeStyle=orthogonalEdgeStyle;rounded=0;orthogonalLoop=1;jettySize=auto;html=1;exitX=0;exitY=0.5;exitDx=0;exitDy=0;entryX=1;entryY=0.5;entryDx=0;entryDy=0;" edge="1" parent="1" source="mVXSHvILS6m2LbovHZ73-137" target="Xa-99icX76XOGyTgmu79-37">
          <mxGeometry relative="1" as="geometry" />
        </mxCell>
        <mxCell id="Xa-99icX76XOGyTgmu79-41" value="has_one" style="edgeLabel;html=1;align=center;verticalAlign=middle;resizable=0;points=[];" vertex="1" connectable="0" parent="Xa-99icX76XOGyTgmu79-40">
          <mxGeometry x="0.1404" y="1" relative="1" as="geometry">
            <mxPoint as="offset" />
          </mxGeometry>
        </mxCell>
        <mxCell id="Xa-99icX76XOGyTgmu79-43" style="edgeStyle=orthogonalEdgeStyle;rounded=0;orthogonalLoop=1;jettySize=auto;html=1;exitX=1;exitY=0.5;exitDx=0;exitDy=0;entryX=0;entryY=0.5;entryDx=0;entryDy=0;" edge="1" parent="1" source="mVXSHvILS6m2LbovHZ73-137" target="Xa-99icX76XOGyTgmu79-42">
          <mxGeometry relative="1" as="geometry" />
        </mxCell>
        <mxCell id="Xa-99icX76XOGyTgmu79-45" value="has_one" style="edgeLabel;html=1;align=center;verticalAlign=middle;resizable=0;points=[];" vertex="1" connectable="0" parent="Xa-99icX76XOGyTgmu79-43">
          <mxGeometry x="-0.0918" y="-3" relative="1" as="geometry">
            <mxPoint as="offset" />
          </mxGeometry>
        </mxCell>
        <mxCell id="mVXSHvILS6m2LbovHZ73-137" value="заявка на расходники" style="rounded=1;whiteSpace=wrap;html=1;" parent="1" vertex="1">
          <mxGeometry x="-330" y="255" width="120" height="60" as="geometry" />
        </mxCell>
        <mxCell id="Xa-99icX76XOGyTgmu79-63" style="edgeStyle=orthogonalEdgeStyle;rounded=0;orthogonalLoop=1;jettySize=auto;html=1;exitX=0;exitY=0.5;exitDx=0;exitDy=0;" edge="1" parent="1" source="mVXSHvILS6m2LbovHZ73-145" target="Xa-99icX76XOGyTgmu79-62">
          <mxGeometry relative="1" as="geometry" />
        </mxCell>
        <mxCell id="Xa-99icX76XOGyTgmu79-64" value="has_many" style="edgeLabel;html=1;align=center;verticalAlign=middle;resizable=0;points=[];" vertex="1" connectable="0" parent="Xa-99icX76XOGyTgmu79-63">
          <mxGeometry x="-0.1115" y="1" relative="1" as="geometry">
            <mxPoint as="offset" />
          </mxGeometry>
        </mxCell>
        <mxCell id="mVXSHvILS6m2LbovHZ73-145" value="результаты&lt;div&gt;проверки&lt;/div&gt;" style="rounded=1;whiteSpace=wrap;html=1;" parent="1" vertex="1">
          <mxGeometry x="1492" y="-390" width="120" height="60" as="geometry" />
        </mxCell>
        <mxCell id="Xa-99icX76XOGyTgmu79-71" style="edgeStyle=orthogonalEdgeStyle;rounded=0;orthogonalLoop=1;jettySize=auto;html=1;exitX=0.25;exitY=1;exitDx=0;exitDy=0;entryX=0;entryY=0.5;entryDx=0;entryDy=0;" edge="1" parent="1" source="mVXSHvILS6m2LbovHZ73-150" target="mVXSHvILS6m2LbovHZ73-172">
          <mxGeometry relative="1" as="geometry" />
        </mxCell>
        <mxCell id="Xa-99icX76XOGyTgmu79-72" value="has_one" style="edgeLabel;html=1;align=center;verticalAlign=middle;resizable=0;points=[];" vertex="1" connectable="0" parent="Xa-99icX76XOGyTgmu79-71">
          <mxGeometry x="0.3567" y="2" relative="1" as="geometry">
            <mxPoint as="offset" />
          </mxGeometry>
        </mxCell>
        <mxCell id="Xa-99icX76XOGyTgmu79-80" style="edgeStyle=orthogonalEdgeStyle;rounded=0;orthogonalLoop=1;jettySize=auto;html=1;exitX=0;exitY=0.5;exitDx=0;exitDy=0;" edge="1" parent="1" source="mVXSHvILS6m2LbovHZ73-150" target="Xa-99icX76XOGyTgmu79-68">
          <mxGeometry relative="1" as="geometry" />
        </mxCell>
        <mxCell id="Xa-99icX76XOGyTgmu79-81" value="has_one" style="edgeLabel;html=1;align=center;verticalAlign=middle;resizable=0;points=[];" vertex="1" connectable="0" parent="Xa-99icX76XOGyTgmu79-80">
          <mxGeometry x="-0.0121" relative="1" as="geometry">
            <mxPoint as="offset" />
          </mxGeometry>
        </mxCell>
        <mxCell id="mVXSHvILS6m2LbovHZ73-150" value="инвойс" style="rounded=1;whiteSpace=wrap;html=1;" parent="1" vertex="1">
          <mxGeometry x="556" y="-747.5" width="120" height="60" as="geometry" />
        </mxCell>
        <mxCell id="mVXSHvILS6m2LbovHZ73-160" style="edgeStyle=orthogonalEdgeStyle;rounded=0;orthogonalLoop=1;jettySize=auto;html=1;exitX=0.5;exitY=0;exitDx=0;exitDy=0;entryX=0;entryY=0.5;entryDx=0;entryDy=0;" parent="1" source="mVXSHvILS6m2LbovHZ73-158" target="mVXSHvILS6m2LbovHZ73-171" edge="1">
          <mxGeometry relative="1" as="geometry">
            <mxPoint x="-330" y="-260" as="targetPoint" />
            <Array as="points">
              <mxPoint x="-490" y="-290" />
            </Array>
          </mxGeometry>
        </mxCell>
        <mxCell id="mVXSHvILS6m2LbovHZ73-161" value="has_one" style="edgeLabel;html=1;align=center;verticalAlign=middle;resizable=0;points=[];" parent="mVXSHvILS6m2LbovHZ73-160" vertex="1" connectable="0">
          <mxGeometry x="-0.1476" relative="1" as="geometry">
            <mxPoint x="-1" as="offset" />
          </mxGeometry>
        </mxCell>
        <mxCell id="mVXSHvILS6m2LbovHZ73-163" style="edgeStyle=orthogonalEdgeStyle;rounded=0;orthogonalLoop=1;jettySize=auto;html=1;entryX=0.5;entryY=0;entryDx=0;entryDy=0;" parent="1" source="mVXSHvILS6m2LbovHZ73-158" target="mVXSHvILS6m2LbovHZ73-162" edge="1">
          <mxGeometry relative="1" as="geometry" />
        </mxCell>
        <mxCell id="mVXSHvILS6m2LbovHZ73-164" value="has_many" style="edgeLabel;html=1;align=center;verticalAlign=middle;resizable=0;points=[];" parent="mVXSHvILS6m2LbovHZ73-163" vertex="1" connectable="0">
          <mxGeometry x="-0.1619" y="-3" relative="1" as="geometry">
            <mxPoint y="1" as="offset" />
          </mxGeometry>
        </mxCell>
        <mxCell id="mVXSHvILS6m2LbovHZ73-158" value="игра" style="rounded=1;whiteSpace=wrap;html=1;" parent="1" vertex="1">
          <mxGeometry x="-550" y="-220" width="120" height="60" as="geometry" />
        </mxCell>
        <mxCell id="mVXSHvILS6m2LbovHZ73-162" value="ставка" style="rounded=1;whiteSpace=wrap;html=1;" parent="1" vertex="1">
          <mxGeometry x="-550" y="-80" width="120" height="60" as="geometry" />
        </mxCell>
        <mxCell id="Xa-99icX76XOGyTgmu79-16" style="edgeStyle=orthogonalEdgeStyle;rounded=0;orthogonalLoop=1;jettySize=auto;html=1;exitX=1;exitY=0.5;exitDx=0;exitDy=0;entryX=0;entryY=0.5;entryDx=0;entryDy=0;strokeColor=#A3A3A3;" edge="1" parent="1" source="mVXSHvILS6m2LbovHZ73-167" target="Xa-99icX76XOGyTgmu79-15">
          <mxGeometry relative="1" as="geometry" />
        </mxCell>
        <mxCell id="Xa-99icX76XOGyTgmu79-17" value="has_one" style="edgeLabel;html=1;align=center;verticalAlign=middle;resizable=0;points=[];" vertex="1" connectable="0" parent="Xa-99icX76XOGyTgmu79-16">
          <mxGeometry x="-0.2583" y="-1" relative="1" as="geometry">
            <mxPoint x="1" as="offset" />
          </mxGeometry>
        </mxCell>
        <mxCell id="mVXSHvILS6m2LbovHZ73-167" value="&lt;font color=&quot;#a3a3a3&quot;&gt;нотификация&lt;/font&gt;" style="rounded=1;whiteSpace=wrap;html=1;strokeColor=#A3A3A3;" parent="1" vertex="1">
          <mxGeometry x="-450" y="-1080" width="120" height="60" as="geometry" />
        </mxCell>
        <mxCell id="mVXSHvILS6m2LbovHZ73-171" value="задача" style="rounded=1;whiteSpace=wrap;html=1;strokeColor=#00AD12;fillColor=#EDFFF0;" parent="1" vertex="1">
          <mxGeometry x="-370" y="-320" width="120" height="60" as="geometry" />
        </mxCell>
        <mxCell id="mVXSHvILS6m2LbovHZ73-172" value="клиент" style="rounded=1;whiteSpace=wrap;html=1;strokeColor=#00AD12;fillColor=#EDFFF0;" parent="1" vertex="1">
          <mxGeometry x="320" y="-987.5" width="120" height="60" as="geometry" />
        </mxCell>
        <mxCell id="mVXSHvILS6m2LbovHZ73-187" value="" style="edgeStyle=orthogonalEdgeStyle;rounded=0;orthogonalLoop=1;jettySize=auto;html=1;" parent="1" source="mVXSHvILS6m2LbovHZ73-186" target="mVXSHvILS6m2LbovHZ73-124" edge="1">
          <mxGeometry relative="1" as="geometry" />
        </mxCell>
        <mxCell id="mVXSHvILS6m2LbovHZ73-188" value="has_many" style="edgeLabel;html=1;align=center;verticalAlign=middle;resizable=0;points=[];" parent="mVXSHvILS6m2LbovHZ73-187" vertex="1" connectable="0">
          <mxGeometry x="-0.4857" y="6" relative="1" as="geometry">
            <mxPoint as="offset" />
          </mxGeometry>
        </mxCell>
        <mxCell id="mVXSHvILS6m2LbovHZ73-186" value="кандидат" style="rounded=1;whiteSpace=wrap;html=1;" parent="1" vertex="1">
          <mxGeometry x="1150" y="-982.5" width="120" height="60" as="geometry" />
        </mxCell>
        <mxCell id="mVXSHvILS6m2LbovHZ73-205" value="задача" style="rounded=1;whiteSpace=wrap;html=1;strokeColor=#00AD12;fillColor=#EDFFF0;" parent="1" vertex="1">
          <mxGeometry x="-250" y="115" width="120" height="60" as="geometry" />
        </mxCell>
        <mxCell id="mVXSHvILS6m2LbovHZ73-206" style="edgeStyle=orthogonalEdgeStyle;rounded=0;orthogonalLoop=1;jettySize=auto;html=1;exitX=0.75;exitY=0;exitDx=0;exitDy=0;entryX=0.5;entryY=1;entryDx=0;entryDy=0;" parent="1" source="mVXSHvILS6m2LbovHZ73-137" target="mVXSHvILS6m2LbovHZ73-205" edge="1">
          <mxGeometry relative="1" as="geometry" />
        </mxCell>
        <mxCell id="Xa-99icX76XOGyTgmu79-35" value="has_one" style="edgeLabel;html=1;align=center;verticalAlign=middle;resizable=0;points=[];" vertex="1" connectable="0" parent="mVXSHvILS6m2LbovHZ73-206">
          <mxGeometry x="-0.3162" relative="1" as="geometry">
            <mxPoint as="offset" />
          </mxGeometry>
        </mxCell>
        <mxCell id="mVXSHvILS6m2LbovHZ73-207" value="" style="endArrow=classic;html=1;rounded=0;dashed=1;strokeColor=#237528;exitX=0;exitY=0;exitDx=0;exitDy=0;entryX=1;entryY=0.75;entryDx=0;entryDy=0;strokeWidth=1;" parent="1" source="Xa-99icX76XOGyTgmu79-114" target="mVXSHvILS6m2LbovHZ73-195" edge="1">
          <mxGeometry width="50" height="50" relative="1" as="geometry">
            <mxPoint x="170" y="-250" as="sourcePoint" />
            <mxPoint x="170" y="-70" as="targetPoint" />
          </mxGeometry>
        </mxCell>
        <mxCell id="mVXSHvILS6m2LbovHZ73-212" value="&lt;b&gt;&lt;font style=&quot;font-size: 24px;&quot;&gt;Документооборот&lt;/font&gt;&lt;/b&gt;" style="text;strokeColor=none;fillColor=none;align=left;verticalAlign=middle;spacingLeft=4;spacingRight=4;overflow=hidden;points=[[0,0.5],[1,0.5]];portConstraint=eastwest;rotatable=0;whiteSpace=wrap;html=1;" parent="1" vertex="1">
          <mxGeometry x="-90" y="-900" width="240" height="30" as="geometry" />
        </mxCell>
        <mxCell id="mVXSHvILS6m2LbovHZ73-213" value="&lt;b&gt;&lt;font style=&quot;font-size: 24px;&quot;&gt;Сборка расходников&lt;/font&gt;&lt;/b&gt;" style="text;strokeColor=none;fillColor=none;align=left;verticalAlign=middle;spacingLeft=4;spacingRight=4;overflow=hidden;points=[[0,0.5],[1,0.5]];portConstraint=eastwest;rotatable=0;whiteSpace=wrap;html=1;" parent="1" vertex="1">
          <mxGeometry x="-260" y="45" width="260" height="30" as="geometry" />
        </mxCell>
        <mxCell id="mVXSHvILS6m2LbovHZ73-214" value="&lt;b&gt;&lt;font style=&quot;font-size: 24px;&quot;&gt;Тотализатор&lt;/font&gt;&lt;/b&gt;" style="text;strokeColor=none;fillColor=none;align=left;verticalAlign=middle;spacingLeft=4;spacingRight=4;overflow=hidden;points=[[0,0.5],[1,0.5]];portConstraint=eastwest;rotatable=0;whiteSpace=wrap;html=1;" parent="1" vertex="1">
          <mxGeometry x="-300" y="-380" width="162" height="30" as="geometry" />
        </mxCell>
        <mxCell id="mVXSHvILS6m2LbovHZ73-215" value="&lt;b&gt;&lt;font style=&quot;font-size: 24px;&quot;&gt;Аудит / контроль качества&lt;/font&gt;&lt;/b&gt;" style="text;strokeColor=none;fillColor=none;align=left;verticalAlign=middle;spacingLeft=4;spacingRight=4;overflow=hidden;points=[[0,0.5],[1,0.5]];portConstraint=eastwest;rotatable=0;whiteSpace=wrap;html=1;" parent="1" vertex="1">
          <mxGeometry x="1310" y="-510" width="342" height="30" as="geometry" />
        </mxCell>
        <mxCell id="mVXSHvILS6m2LbovHZ73-216" value="&lt;b&gt;&lt;font style=&quot;font-size: 24px;&quot;&gt;Тестирование воркеров&lt;/font&gt;&lt;/b&gt;" style="text;strokeColor=none;fillColor=none;align=left;verticalAlign=middle;spacingLeft=4;spacingRight=4;overflow=hidden;points=[[0,0.5],[1,0.5]];portConstraint=eastwest;rotatable=0;whiteSpace=wrap;html=1;" parent="1" vertex="1">
          <mxGeometry x="1340" y="-1070" width="312" height="30" as="geometry" />
        </mxCell>
        <mxCell id="mVXSHvILS6m2LbovHZ73-217" value="&lt;b&gt;&lt;font style=&quot;font-size: 24px;&quot;&gt;Билинг / вылаты&lt;/font&gt;&lt;/b&gt;" style="text;strokeColor=none;fillColor=none;align=left;verticalAlign=middle;spacingLeft=4;spacingRight=4;overflow=hidden;points=[[0,0.5],[1,0.5]];portConstraint=eastwest;rotatable=0;whiteSpace=wrap;html=1;" parent="1" vertex="1">
          <mxGeometry x="740" y="-1147.5" width="230" height="30" as="geometry" />
        </mxCell>
        <mxCell id="mVXSHvILS6m2LbovHZ73-218" value="&lt;b&gt;&lt;font color=&quot;#a3a3a3&quot; style=&quot;font-size: 24px;&quot;&gt;Нотификации&lt;/font&gt;&lt;/b&gt;" style="text;strokeColor=none;fillColor=none;align=left;verticalAlign=middle;spacingLeft=4;spacingRight=4;overflow=hidden;points=[[0,0.5],[1,0.5]];portConstraint=eastwest;rotatable=0;whiteSpace=wrap;html=1;" parent="1" vertex="1">
          <mxGeometry x="-170" y="-1160" width="180" height="30" as="geometry" />
        </mxCell>
        <mxCell id="Xa-99icX76XOGyTgmu79-8" style="edgeStyle=orthogonalEdgeStyle;rounded=0;orthogonalLoop=1;jettySize=auto;html=1;exitX=0;exitY=1;exitDx=0;exitDy=0;entryX=1;entryY=0;entryDx=0;entryDy=0;" edge="1" parent="1" source="Xa-99icX76XOGyTgmu79-1" target="Xa-99icX76XOGyTgmu79-5">
          <mxGeometry relative="1" as="geometry">
            <Array as="points">
              <mxPoint x="640" y="-260" />
              <mxPoint x="540" y="-260" />
            </Array>
          </mxGeometry>
        </mxCell>
        <mxCell id="Xa-99icX76XOGyTgmu79-9" value="has_one" style="edgeLabel;html=1;align=center;verticalAlign=middle;resizable=0;points=[];" vertex="1" connectable="0" parent="Xa-99icX76XOGyTgmu79-8">
          <mxGeometry x="-0.0514" y="-3" relative="1" as="geometry">
            <mxPoint as="offset" />
          </mxGeometry>
        </mxCell>
        <mxCell id="Xa-99icX76XOGyTgmu79-1" value="воркер" style="rounded=1;whiteSpace=wrap;html=1;" vertex="1" parent="1">
          <mxGeometry x="640" y="-340" width="120" height="60" as="geometry" />
        </mxCell>
        <mxCell id="Xa-99icX76XOGyTgmu79-10" style="edgeStyle=orthogonalEdgeStyle;rounded=0;orthogonalLoop=1;jettySize=auto;html=1;exitX=0;exitY=0.5;exitDx=0;exitDy=0;entryX=1;entryY=0.25;entryDx=0;entryDy=0;" edge="1" parent="1" source="Xa-99icX76XOGyTgmu79-2" target="Xa-99icX76XOGyTgmu79-5">
          <mxGeometry relative="1" as="geometry" />
        </mxCell>
        <mxCell id="Xa-99icX76XOGyTgmu79-11" value="has_one" style="edgeLabel;html=1;align=center;verticalAlign=middle;resizable=0;points=[];" vertex="1" connectable="0" parent="Xa-99icX76XOGyTgmu79-10">
          <mxGeometry x="0.4459" y="-3" relative="1" as="geometry">
            <mxPoint as="offset" />
          </mxGeometry>
        </mxCell>
        <mxCell id="Xa-99icX76XOGyTgmu79-2" value="Менеджер" style="rounded=1;whiteSpace=wrap;html=1;" vertex="1" parent="1">
          <mxGeometry x="640" y="-240" width="120" height="60" as="geometry" />
        </mxCell>
        <mxCell id="Xa-99icX76XOGyTgmu79-12" style="edgeStyle=orthogonalEdgeStyle;rounded=0;orthogonalLoop=1;jettySize=auto;html=1;exitX=0;exitY=0.25;exitDx=0;exitDy=0;entryX=1;entryY=0.75;entryDx=0;entryDy=0;" edge="1" parent="1" source="Xa-99icX76XOGyTgmu79-3" target="Xa-99icX76XOGyTgmu79-5">
          <mxGeometry relative="1" as="geometry" />
        </mxCell>
        <mxCell id="Xa-99icX76XOGyTgmu79-13" value="has_one" style="edgeLabel;html=1;align=center;verticalAlign=middle;resizable=0;points=[];" vertex="1" connectable="0" parent="Xa-99icX76XOGyTgmu79-12">
          <mxGeometry x="0.3647" y="1" relative="1" as="geometry">
            <mxPoint as="offset" />
          </mxGeometry>
        </mxCell>
        <mxCell id="Xa-99icX76XOGyTgmu79-3" value="Кладовщик" style="rounded=1;whiteSpace=wrap;html=1;" vertex="1" parent="1">
          <mxGeometry x="640" y="-140" width="120" height="60" as="geometry" />
        </mxCell>
        <mxCell id="Xa-99icX76XOGyTgmu79-6" style="edgeStyle=orthogonalEdgeStyle;rounded=0;orthogonalLoop=1;jettySize=auto;html=1;entryX=0.25;entryY=0;entryDx=0;entryDy=0;exitX=0;exitY=0.5;exitDx=0;exitDy=0;" edge="1" parent="1" source="Xa-99icX76XOGyTgmu79-4" target="Xa-99icX76XOGyTgmu79-5">
          <mxGeometry relative="1" as="geometry" />
        </mxCell>
        <mxCell id="Xa-99icX76XOGyTgmu79-7" value="has_one" style="edgeLabel;html=1;align=center;verticalAlign=middle;resizable=0;points=[];" vertex="1" connectable="0" parent="Xa-99icX76XOGyTgmu79-6">
          <mxGeometry x="0.1058" relative="1" as="geometry">
            <mxPoint as="offset" />
          </mxGeometry>
        </mxCell>
        <mxCell id="Xa-99icX76XOGyTgmu79-4" value="Драгие работники организации" style="rounded=1;whiteSpace=wrap;html=1;" vertex="1" parent="1">
          <mxGeometry x="480" y="-340" width="120" height="60" as="geometry" />
        </mxCell>
        <mxCell id="Xa-99icX76XOGyTgmu79-5" value="Информация о работнике" style="rounded=1;whiteSpace=wrap;html=1;" vertex="1" parent="1">
          <mxGeometry x="420" y="-200" width="120" height="60" as="geometry" />
        </mxCell>
        <mxCell id="Xa-99icX76XOGyTgmu79-14" value="воркер" style="rounded=1;whiteSpace=wrap;html=1;strokeColor=#00AD12;fillColor=#EDFFF0;" vertex="1" parent="1">
          <mxGeometry x="-50" y="-685" width="120" height="60" as="geometry" />
        </mxCell>
        <mxCell id="Xa-99icX76XOGyTgmu79-15" value="&lt;font color=&quot;#a3a3a3&quot;&gt;темплейт&lt;/font&gt;" style="rounded=1;whiteSpace=wrap;html=1;strokeColor=#A3A3A3;" vertex="1" parent="1">
          <mxGeometry x="-170" y="-1080" width="120" height="60" as="geometry" />
        </mxCell>
        <mxCell id="Xa-99icX76XOGyTgmu79-19" style="edgeStyle=orthogonalEdgeStyle;rounded=0;orthogonalLoop=1;jettySize=auto;html=1;exitX=0.25;exitY=1;exitDx=0;exitDy=0;entryX=0.921;entryY=-0.041;entryDx=0;entryDy=0;entryPerimeter=0;" edge="1" parent="1" source="Xa-99icX76XOGyTgmu79-18" target="mVXSHvILS6m2LbovHZ73-108">
          <mxGeometry relative="1" as="geometry">
            <Array as="points">
              <mxPoint x="-20" y="-735" />
              <mxPoint x="-189" y="-735" />
              <mxPoint x="-189" y="-687" />
            </Array>
          </mxGeometry>
        </mxCell>
        <mxCell id="Xa-99icX76XOGyTgmu79-20" value="has_many" style="edgeLabel;html=1;align=center;verticalAlign=middle;resizable=0;points=[];" vertex="1" connectable="0" parent="Xa-99icX76XOGyTgmu79-19">
          <mxGeometry x="-0.0553" y="-5" relative="1" as="geometry">
            <mxPoint as="offset" />
          </mxGeometry>
        </mxCell>
        <mxCell id="Xa-99icX76XOGyTgmu79-18" value="менеждер" style="rounded=1;whiteSpace=wrap;html=1;strokeColor=#00AD12;fillColor=#EDFFF0;" vertex="1" parent="1">
          <mxGeometry x="-50" y="-835" width="120" height="60" as="geometry" />
        </mxCell>
        <mxCell id="Xa-99icX76XOGyTgmu79-21" value="кладовщик" style="rounded=1;whiteSpace=wrap;html=1;strokeColor=#00AD12;fillColor=#EDFFF0;" vertex="1" parent="1">
          <mxGeometry x="-410" y="115" width="120" height="60" as="geometry" />
        </mxCell>
        <mxCell id="Xa-99icX76XOGyTgmu79-37" value="воркер" style="rounded=1;whiteSpace=wrap;html=1;strokeColor=#00AD12;fillColor=#EDFFF0;" vertex="1" parent="1">
          <mxGeometry x="-540" y="255" width="120" height="60" as="geometry" />
        </mxCell>
        <mxCell id="Xa-99icX76XOGyTgmu79-42" value="клиент" style="rounded=1;whiteSpace=wrap;html=1;strokeColor=#00AD12;fillColor=#EDFFF0;" vertex="1" parent="1">
          <mxGeometry x="-120" y="255" width="120" height="60" as="geometry" />
        </mxCell>
        <mxCell id="Xa-99icX76XOGyTgmu79-46" value="" style="rounded=0;whiteSpace=wrap;html=1;fillColor=none;align=center;" vertex="1" parent="1">
          <mxGeometry x="-270" y="405" width="600" height="280" as="geometry" />
        </mxCell>
        <mxCell id="Xa-99icX76XOGyTgmu79-47" style="edgeStyle=orthogonalEdgeStyle;rounded=0;orthogonalLoop=1;jettySize=auto;html=1;exitX=0.25;exitY=0;exitDx=0;exitDy=0;entryX=0.5;entryY=1;entryDx=0;entryDy=0;" edge="1" parent="1" source="Xa-99icX76XOGyTgmu79-53" target="Xa-99icX76XOGyTgmu79-58">
          <mxGeometry relative="1" as="geometry" />
        </mxCell>
        <mxCell id="Xa-99icX76XOGyTgmu79-48" value="has_many" style="edgeLabel;html=1;align=center;verticalAlign=middle;resizable=0;points=[];" vertex="1" connectable="0" parent="Xa-99icX76XOGyTgmu79-47">
          <mxGeometry x="-0.1913" y="1" relative="1" as="geometry">
            <mxPoint as="offset" />
          </mxGeometry>
        </mxCell>
        <mxCell id="Xa-99icX76XOGyTgmu79-49" style="edgeStyle=orthogonalEdgeStyle;rounded=0;orthogonalLoop=1;jettySize=auto;html=1;exitX=0;exitY=0.5;exitDx=0;exitDy=0;entryX=1;entryY=0.5;entryDx=0;entryDy=0;" edge="1" parent="1" source="Xa-99icX76XOGyTgmu79-53" target="Xa-99icX76XOGyTgmu79-59">
          <mxGeometry relative="1" as="geometry" />
        </mxCell>
        <mxCell id="Xa-99icX76XOGyTgmu79-50" value="has_one" style="edgeLabel;html=1;align=center;verticalAlign=middle;resizable=0;points=[];" vertex="1" connectable="0" parent="Xa-99icX76XOGyTgmu79-49">
          <mxGeometry x="0.1404" y="1" relative="1" as="geometry">
            <mxPoint as="offset" />
          </mxGeometry>
        </mxCell>
        <mxCell id="Xa-99icX76XOGyTgmu79-51" style="edgeStyle=orthogonalEdgeStyle;rounded=0;orthogonalLoop=1;jettySize=auto;html=1;exitX=1;exitY=0.5;exitDx=0;exitDy=0;entryX=0;entryY=0.5;entryDx=0;entryDy=0;" edge="1" parent="1" source="Xa-99icX76XOGyTgmu79-53" target="Xa-99icX76XOGyTgmu79-60">
          <mxGeometry relative="1" as="geometry" />
        </mxCell>
        <mxCell id="Xa-99icX76XOGyTgmu79-52" value="has_one" style="edgeLabel;html=1;align=center;verticalAlign=middle;resizable=0;points=[];" vertex="1" connectable="0" parent="Xa-99icX76XOGyTgmu79-51">
          <mxGeometry x="-0.0918" y="-3" relative="1" as="geometry">
            <mxPoint as="offset" />
          </mxGeometry>
        </mxCell>
        <mxCell id="Xa-99icX76XOGyTgmu79-53" value="заявка на расходники" style="rounded=1;whiteSpace=wrap;html=1;" vertex="1" parent="1">
          <mxGeometry x="-30" y="585" width="120" height="60" as="geometry" />
        </mxCell>
        <mxCell id="Xa-99icX76XOGyTgmu79-55" style="edgeStyle=orthogonalEdgeStyle;rounded=0;orthogonalLoop=1;jettySize=auto;html=1;exitX=0.75;exitY=0;exitDx=0;exitDy=0;entryX=0.5;entryY=1;entryDx=0;entryDy=0;" edge="1" parent="1" source="Xa-99icX76XOGyTgmu79-53" target="Xa-99icX76XOGyTgmu79-61">
          <mxGeometry relative="1" as="geometry">
            <mxPoint x="110" y="505" as="targetPoint" />
          </mxGeometry>
        </mxCell>
        <mxCell id="Xa-99icX76XOGyTgmu79-56" value="has_one" style="edgeLabel;html=1;align=center;verticalAlign=middle;resizable=0;points=[];" vertex="1" connectable="0" parent="Xa-99icX76XOGyTgmu79-55">
          <mxGeometry x="-0.3162" relative="1" as="geometry">
            <mxPoint as="offset" />
          </mxGeometry>
        </mxCell>
        <mxCell id="Xa-99icX76XOGyTgmu79-57" value="&lt;b&gt;&lt;font style=&quot;font-size: 24px;&quot;&gt;Заказ и выдача печенья&lt;/font&gt;&lt;/b&gt;" style="text;strokeColor=none;fillColor=none;align=left;verticalAlign=middle;spacingLeft=4;spacingRight=4;overflow=hidden;points=[[0,0.5],[1,0.5]];portConstraint=eastwest;rotatable=0;whiteSpace=wrap;html=1;" vertex="1" parent="1">
          <mxGeometry y="375" width="300" height="30" as="geometry" />
        </mxCell>
        <mxCell id="Xa-99icX76XOGyTgmu79-58" value="кладовщик" style="rounded=1;whiteSpace=wrap;html=1;strokeColor=#00AD12;fillColor=#EDFFF0;" vertex="1" parent="1">
          <mxGeometry x="-110" y="445" width="120" height="60" as="geometry" />
        </mxCell>
        <mxCell id="Xa-99icX76XOGyTgmu79-59" value="воркер" style="rounded=1;whiteSpace=wrap;html=1;strokeColor=#00AD12;fillColor=#EDFFF0;" vertex="1" parent="1">
          <mxGeometry x="-240" y="585" width="120" height="60" as="geometry" />
        </mxCell>
        <mxCell id="Xa-99icX76XOGyTgmu79-60" value="клиент" style="rounded=1;whiteSpace=wrap;html=1;strokeColor=#00AD12;fillColor=#EDFFF0;" vertex="1" parent="1">
          <mxGeometry x="180" y="585" width="120" height="60" as="geometry" />
        </mxCell>
        <mxCell id="Xa-99icX76XOGyTgmu79-61" value="Данные внешних систем" style="rounded=1;whiteSpace=wrap;html=1;" vertex="1" parent="1">
          <mxGeometry x="49" y="445" width="120" height="60" as="geometry" />
        </mxCell>
        <mxCell id="Xa-99icX76XOGyTgmu79-62" value="менеджер" style="rounded=1;whiteSpace=wrap;html=1;fillColor=#EDFFF0;strokeColor=#00AD12;" vertex="1" parent="1">
          <mxGeometry x="1162" y="-390" width="120" height="60" as="geometry" />
        </mxCell>
        <mxCell id="Xa-99icX76XOGyTgmu79-65" value="Счет" style="rounded=1;whiteSpace=wrap;html=1;" vertex="1" parent="1">
          <mxGeometry x="556" y="-1107.5" width="120" height="60" as="geometry" />
        </mxCell>
        <mxCell id="Xa-99icX76XOGyTgmu79-68" value="воркер" style="rounded=1;whiteSpace=wrap;html=1;strokeColor=#00AD12;fillColor=#EDFFF0;" vertex="1" parent="1">
          <mxGeometry x="320" y="-747.5" width="120" height="60" as="geometry" />
        </mxCell>
        <mxCell id="Xa-99icX76XOGyTgmu79-89" value="менеджер" style="rounded=1;whiteSpace=wrap;html=1;fillColor=#EDFFF0;strokeColor=#00AD12;" vertex="1" parent="1">
          <mxGeometry x="1300" y="335" width="120" height="60" as="geometry" />
        </mxCell>
        <mxCell id="Xa-99icX76XOGyTgmu79-90" value="тесты" style="rounded=1;whiteSpace=wrap;html=1;fillColor=#EDFFF0;strokeColor=#00AD12;" vertex="1" parent="1">
          <mxGeometry x="1150" y="-732.5" width="120" height="60" as="geometry" />
        </mxCell>
        <mxCell id="Xa-99icX76XOGyTgmu79-91" value="Требования" style="rounded=1;whiteSpace=wrap;html=1;" vertex="1" parent="1">
          <mxGeometry x="1320" y="80" width="120" height="60" as="geometry" />
        </mxCell>
        <mxCell id="Xa-99icX76XOGyTgmu79-93" value="менеджер" style="rounded=1;whiteSpace=wrap;html=1;fillColor=#EDFFF0;strokeColor=#00AD12;" vertex="1" parent="1">
          <mxGeometry x="840" y="330" width="120" height="60" as="geometry" />
        </mxCell>
        <mxCell id="Xa-99icX76XOGyTgmu79-96" value="тест" style="rounded=1;whiteSpace=wrap;html=1;" vertex="1" parent="1">
          <mxGeometry x="1469" y="445" width="120" height="60" as="geometry" />
        </mxCell>
        <mxCell id="Xa-99icX76XOGyTgmu79-97" value="Правила матчинга" style="rounded=1;whiteSpace=wrap;html=1;" vertex="1" parent="1">
          <mxGeometry x="840" y="445" width="120" height="60" as="geometry" />
        </mxCell>
        <mxCell id="Xa-99icX76XOGyTgmu79-98" value="результаты&amp;nbsp;&lt;div&gt;проверки&lt;/div&gt;" style="rounded=1;whiteSpace=wrap;html=1;fillColor=#EDFFF0;strokeColor=#00AD12;" vertex="1" parent="1">
          <mxGeometry x="1132" y="-30" width="120" height="60" as="geometry" />
        </mxCell>
        <mxCell id="Xa-99icX76XOGyTgmu79-99" value="менеджер" style="rounded=1;whiteSpace=wrap;html=1;fillColor=#EDFFF0;strokeColor=#00AD12;" vertex="1" parent="1">
          <mxGeometry x="1132" y="80" width="120" height="60" as="geometry" />
        </mxCell>
        <mxCell id="Xa-99icX76XOGyTgmu79-103" value="тесты" style="rounded=1;whiteSpace=wrap;html=1;fillColor=#EDFFF0;strokeColor=#00AD12;" vertex="1" parent="1">
          <mxGeometry x="1322" y="-30" width="120" height="60" as="geometry" />
        </mxCell>
        <mxCell id="Xa-99icX76XOGyTgmu79-104" value="Правила матчинга" style="rounded=1;whiteSpace=wrap;html=1;fillColor=#EDFFF0;strokeColor=#00AD12;" vertex="1" parent="1">
          <mxGeometry x="1492" y="-30" width="120" height="60" as="geometry" />
        </mxCell>
        <mxCell id="Xa-99icX76XOGyTgmu79-105" value="Требования" style="rounded=1;whiteSpace=wrap;html=1;fillColor=#EDFFF0;strokeColor=#00AD12;" vertex="1" parent="1">
          <mxGeometry x="1469" y="335" width="120" height="60" as="geometry" />
        </mxCell>
        <mxCell id="Xa-99icX76XOGyTgmu79-106" value="Требования" style="rounded=1;whiteSpace=wrap;html=1;fillColor=#EDFFF0;strokeColor=#00AD12;" vertex="1" parent="1">
          <mxGeometry x="1021" y="330" width="120" height="60" as="geometry" />
        </mxCell>
        <mxCell id="Xa-99icX76XOGyTgmu79-108" value="&lt;b&gt;&lt;font style=&quot;font-size: 24px;&quot;&gt;Изменение тестов&lt;/font&gt;&lt;/b&gt;" style="text;strokeColor=none;fillColor=none;align=left;verticalAlign=middle;spacingLeft=4;spacingRight=4;overflow=hidden;points=[[0,0.5],[1,0.5]];portConstraint=eastwest;rotatable=0;whiteSpace=wrap;html=1;" vertex="1" parent="1">
          <mxGeometry x="1389" y="260" width="232" height="30" as="geometry" />
        </mxCell>
        <mxCell id="Xa-99icX76XOGyTgmu79-110" value="&lt;b&gt;&lt;font style=&quot;font-size: 24px;&quot;&gt;Изменение матчинга&lt;/font&gt;&lt;/b&gt;" style="text;strokeColor=none;fillColor=none;align=left;verticalAlign=middle;spacingLeft=4;spacingRight=4;overflow=hidden;points=[[0,0.5],[1,0.5]];portConstraint=eastwest;rotatable=0;whiteSpace=wrap;html=1;" vertex="1" parent="1">
          <mxGeometry x="909" y="260" width="260" height="30" as="geometry" />
        </mxCell>
        <mxCell id="Xa-99icX76XOGyTgmu79-112" value="&lt;b&gt;&lt;font style=&quot;font-size: 24px;&quot;&gt;Анализ аудита&lt;/font&gt;&lt;/b&gt;" style="text;strokeColor=none;fillColor=none;align=left;verticalAlign=middle;spacingLeft=4;spacingRight=4;overflow=hidden;points=[[0,0.5],[1,0.5]];portConstraint=eastwest;rotatable=0;whiteSpace=wrap;html=1;" vertex="1" parent="1">
          <mxGeometry x="1440" y="-100" width="200" height="30" as="geometry" />
        </mxCell>
        <mxCell id="Xa-99icX76XOGyTgmu79-114" value="" style="rounded=0;whiteSpace=wrap;html=1;fillColor=none;align=center;" vertex="1" parent="1">
          <mxGeometry x="310" y="-380" width="560" height="350" as="geometry" />
        </mxCell>
        <mxCell id="Xa-99icX76XOGyTgmu79-115" value="&lt;b&gt;&lt;font style=&quot;font-size: 24px;&quot;&gt;Кадры&lt;/font&gt;&lt;/b&gt;" style="text;strokeColor=none;fillColor=none;align=left;verticalAlign=middle;spacingLeft=4;spacingRight=4;overflow=hidden;points=[[0,0.5],[1,0.5]];portConstraint=eastwest;rotatable=0;whiteSpace=wrap;html=1;" vertex="1" parent="1">
          <mxGeometry x="760" y="-410" width="110" height="30" as="geometry" />
        </mxCell>
        <mxCell id="Xa-99icX76XOGyTgmu79-116" value="" style="endArrow=classic;html=1;rounded=0;dashed=1;strokeColor=#237528;exitX=0.25;exitY=0;exitDx=0;exitDy=0;entryX=0.25;entryY=1;entryDx=0;entryDy=0;strokeWidth=1;" edge="1" parent="1" source="Xa-99icX76XOGyTgmu79-114" target="mVXSHvILS6m2LbovHZ73-197">
          <mxGeometry width="50" height="50" relative="1" as="geometry">
            <mxPoint x="369" y="-470" as="sourcePoint" />
            <mxPoint x="160" y="-549" as="targetPoint" />
          </mxGeometry>
        </mxCell>
        <mxCell id="Xa-99icX76XOGyTgmu79-117" value="" style="endArrow=classic;html=1;rounded=0;dashed=1;strokeColor=#237528;exitX=0.5;exitY=0;exitDx=0;exitDy=0;entryX=0;entryY=0;entryDx=0;entryDy=0;strokeWidth=3;" edge="1" parent="1" source="mVXSHvILS6m2LbovHZ73-107" target="mVXSHvILS6m2LbovHZ73-172">
          <mxGeometry width="50" height="50" relative="1" as="geometry">
            <mxPoint x="369" y="-470" as="sourcePoint" />
            <mxPoint x="160" y="-549" as="targetPoint" />
          </mxGeometry>
        </mxCell>
        <mxCell id="Xa-99icX76XOGyTgmu79-118" value="" style="endArrow=classic;html=1;rounded=0;dashed=1;strokeColor=#237528;exitX=0;exitY=1;exitDx=0;exitDy=0;entryX=1;entryY=0;entryDx=0;entryDy=0;strokeWidth=1;" edge="1" parent="1" source="Xa-99icX76XOGyTgmu79-114" target="mVXSHvILS6m2LbovHZ73-200">
          <mxGeometry width="50" height="50" relative="1" as="geometry">
            <mxPoint x="130" y="-360" as="sourcePoint" />
            <mxPoint x="40" y="-190" as="targetPoint" />
          </mxGeometry>
        </mxCell>
        <mxCell id="Xa-99icX76XOGyTgmu79-119" value="" style="endArrow=classic;html=1;rounded=0;dashed=1;strokeColor=#237528;exitX=0;exitY=1;exitDx=0;exitDy=0;" edge="1" parent="1" source="mVXSHvILS6m2LbovHZ73-108" target="mVXSHvILS6m2LbovHZ73-171">
          <mxGeometry width="50" height="50" relative="1" as="geometry">
            <mxPoint x="140" y="-350" as="sourcePoint" />
            <mxPoint x="50" y="-180" as="targetPoint" />
          </mxGeometry>
        </mxCell>
        <mxCell id="Xa-99icX76XOGyTgmu79-120" value="" style="endArrow=classic;html=1;rounded=0;dashed=1;strokeColor=#237528;exitX=0.003;exitY=0.816;exitDx=0;exitDy=0;exitPerimeter=0;entryX=1;entryY=0.25;entryDx=0;entryDy=0;strokeWidth=1;" edge="1" parent="1" source="Xa-99icX76XOGyTgmu79-114" target="mVXSHvILS6m2LbovHZ73-111">
          <mxGeometry width="50" height="50" relative="1" as="geometry">
            <mxPoint x="140" y="-350" as="sourcePoint" />
            <mxPoint x="50" y="-180" as="targetPoint" />
          </mxGeometry>
        </mxCell>
        <mxCell id="Xa-99icX76XOGyTgmu79-121" value="" style="endArrow=classic;html=1;rounded=0;dashed=1;strokeColor=#237528;exitX=1;exitY=0.75;exitDx=0;exitDy=0;entryX=1;entryY=1;entryDx=0;entryDy=0;strokeWidth=3;" edge="1" parent="1" source="Xa-99icX76XOGyTgmu79-96" target="Xa-99icX76XOGyTgmu79-90">
          <mxGeometry width="50" height="50" relative="1" as="geometry">
            <mxPoint x="140" y="-350" as="sourcePoint" />
            <mxPoint x="50" y="-180" as="targetPoint" />
            <Array as="points">
              <mxPoint x="1760" y="490" />
              <mxPoint x="1760" y="-672" />
            </Array>
          </mxGeometry>
        </mxCell>
        <mxCell id="Xa-99icX76XOGyTgmu79-123" value="" style="endArrow=classic;html=1;rounded=0;dashed=1;strokeColor=#237528;exitX=1;exitY=0.5;exitDx=0;exitDy=0;entryX=0;entryY=0.5;entryDx=0;entryDy=0;strokeWidth=1;" edge="1" parent="1" source="Xa-99icX76XOGyTgmu79-114" target="Xa-99icX76XOGyTgmu79-62">
          <mxGeometry width="50" height="50" relative="1" as="geometry">
            <mxPoint x="140" y="-350" as="sourcePoint" />
            <mxPoint x="50" y="-180" as="targetPoint" />
          </mxGeometry>
        </mxCell>
        <mxCell id="Xa-99icX76XOGyTgmu79-124" value="" style="endArrow=classic;html=1;rounded=0;dashed=1;strokeColor=#237528;exitX=1;exitY=0.75;exitDx=0;exitDy=0;entryX=0;entryY=0;entryDx=0;entryDy=0;strokeWidth=1;" edge="1" parent="1" source="Xa-99icX76XOGyTgmu79-114" target="Xa-99icX76XOGyTgmu79-111">
          <mxGeometry width="50" height="50" relative="1" as="geometry">
            <mxPoint x="140" y="-350" as="sourcePoint" />
            <mxPoint x="50" y="-180" as="targetPoint" />
          </mxGeometry>
        </mxCell>
        <mxCell id="Xa-99icX76XOGyTgmu79-125" value="" style="endArrow=classic;html=1;rounded=0;dashed=1;strokeColor=#237528;exitX=0.75;exitY=1;exitDx=0;exitDy=0;entryX=0;entryY=0;entryDx=0;entryDy=0;strokeWidth=1;" edge="1" parent="1" source="Xa-99icX76XOGyTgmu79-114" target="Xa-99icX76XOGyTgmu79-107">
          <mxGeometry width="50" height="50" relative="1" as="geometry">
            <mxPoint x="140" y="-350" as="sourcePoint" />
            <mxPoint x="50" y="-180" as="targetPoint" />
          </mxGeometry>
        </mxCell>
        <mxCell id="Xa-99icX76XOGyTgmu79-126" value="" style="endArrow=classic;html=1;rounded=0;dashed=1;strokeColor=#237528;entryX=0.25;entryY=0;entryDx=0;entryDy=0;exitX=0.5;exitY=1;exitDx=0;exitDy=0;strokeWidth=1;" edge="1" parent="1" source="Xa-99icX76XOGyTgmu79-114" target="Xa-99icX76XOGyTgmu79-109">
          <mxGeometry width="50" height="50" relative="1" as="geometry">
            <mxPoint x="789" y="-120" as="sourcePoint" />
            <mxPoint x="1240" y="360" as="targetPoint" />
          </mxGeometry>
        </mxCell>
        <mxCell id="Xa-99icX76XOGyTgmu79-127" value="" style="endArrow=classic;html=1;rounded=0;dashed=1;strokeColor=#237528;exitX=0.25;exitY=1;exitDx=0;exitDy=0;entryX=0.286;entryY=0.2;entryDx=0;entryDy=0;entryPerimeter=0;strokeWidth=3;" edge="1" parent="1" source="mVXSHvILS6m2LbovHZ73-145" target="Xa-99icX76XOGyTgmu79-111">
          <mxGeometry width="50" height="50" relative="1" as="geometry">
            <mxPoint x="140" y="-350" as="sourcePoint" />
            <mxPoint x="50" y="-180" as="targetPoint" />
          </mxGeometry>
        </mxCell>
        <mxCell id="Xa-99icX76XOGyTgmu79-129" value="" style="endArrow=classic;html=1;rounded=0;dashed=1;strokeColor=#237528;exitX=0.25;exitY=1;exitDx=0;exitDy=0;strokeWidth=1;" edge="1" parent="1" source="Xa-99icX76XOGyTgmu79-114" target="Xa-99icX76XOGyTgmu79-57">
          <mxGeometry width="50" height="50" relative="1" as="geometry">
            <mxPoint x="140" y="-350" as="sourcePoint" />
            <mxPoint x="50" y="-180" as="targetPoint" />
          </mxGeometry>
        </mxCell>
        <mxCell id="Xa-99icX76XOGyTgmu79-130" value="" style="rounded=0;whiteSpace=wrap;html=1;fillColor=none;align=center;" vertex="1" parent="1">
          <mxGeometry x="390" y="405" width="370" height="285" as="geometry" />
        </mxCell>
        <mxCell id="Xa-99icX76XOGyTgmu79-135" value="&lt;b&gt;&lt;font style=&quot;font-size: 24px;&quot;&gt;матчинг&lt;/font&gt;&lt;/b&gt;" style="text;strokeColor=none;fillColor=none;align=left;verticalAlign=middle;spacingLeft=4;spacingRight=4;overflow=hidden;points=[[0,0.5],[1,0.5]];portConstraint=eastwest;rotatable=0;whiteSpace=wrap;html=1;" vertex="1" parent="1">
          <mxGeometry x="640" y="375" width="120" height="30" as="geometry" />
        </mxCell>
        <mxCell id="Xa-99icX76XOGyTgmu79-136" value="правила матчинга" style="rounded=1;whiteSpace=wrap;html=1;fillColor=#EDFFF0;strokeColor=#00AD12;" vertex="1" parent="1">
          <mxGeometry x="600" y="600" width="120" height="60" as="geometry" />
        </mxCell>
        <mxCell id="Xa-99icX76XOGyTgmu79-137" value="история" style="rounded=1;whiteSpace=wrap;html=1;" vertex="1" parent="1">
          <mxGeometry x="602" y="455" width="120" height="60" as="geometry" />
        </mxCell>
        <mxCell id="Xa-99icX76XOGyTgmu79-139" style="edgeStyle=orthogonalEdgeStyle;rounded=0;orthogonalLoop=1;jettySize=auto;html=1;exitX=0.5;exitY=1;exitDx=0;exitDy=0;entryX=0;entryY=0.5;entryDx=0;entryDy=0;" edge="1" parent="1" source="Xa-99icX76XOGyTgmu79-138" target="Xa-99icX76XOGyTgmu79-136">
          <mxGeometry relative="1" as="geometry" />
        </mxCell>
        <mxCell id="Xa-99icX76XOGyTgmu79-140" value="has_many" style="edgeLabel;html=1;align=center;verticalAlign=middle;resizable=0;points=[];" vertex="1" connectable="0" parent="Xa-99icX76XOGyTgmu79-139">
          <mxGeometry x="0.3539" y="1" relative="1" as="geometry">
            <mxPoint as="offset" />
          </mxGeometry>
        </mxCell>
        <mxCell id="Xa-99icX76XOGyTgmu79-141" style="edgeStyle=orthogonalEdgeStyle;rounded=0;orthogonalLoop=1;jettySize=auto;html=1;exitX=1;exitY=0.5;exitDx=0;exitDy=0;entryX=0;entryY=0.5;entryDx=0;entryDy=0;" edge="1" parent="1" source="Xa-99icX76XOGyTgmu79-138" target="Xa-99icX76XOGyTgmu79-137">
          <mxGeometry relative="1" as="geometry" />
        </mxCell>
        <mxCell id="Xa-99icX76XOGyTgmu79-142" value="has_many" style="edgeLabel;html=1;align=center;verticalAlign=middle;resizable=0;points=[];" vertex="1" connectable="0" parent="Xa-99icX76XOGyTgmu79-141">
          <mxGeometry x="0.4009" relative="1" as="geometry">
            <mxPoint y="1" as="offset" />
          </mxGeometry>
        </mxCell>
        <mxCell id="Xa-99icX76XOGyTgmu79-138" value="Конфигурация" style="rounded=1;whiteSpace=wrap;html=1;" vertex="1" parent="1">
          <mxGeometry x="409" y="455" width="120" height="60" as="geometry" />
        </mxCell>
        <mxCell id="Xa-99icX76XOGyTgmu79-143" value="" style="endArrow=classic;html=1;rounded=0;dashed=1;strokeColor=#237528;exitX=0.25;exitY=1;exitDx=0;exitDy=0;entryX=0.75;entryY=0;entryDx=0;entryDy=0;strokeWidth=3;" edge="1" parent="1" source="Xa-99icX76XOGyTgmu79-97" target="Xa-99icX76XOGyTgmu79-136">
          <mxGeometry width="50" height="50" relative="1" as="geometry">
            <mxPoint x="509" y="-120" as="sourcePoint" />
            <mxPoint x="355" y="390" as="targetPoint" />
          </mxGeometry>
        </mxCell>
        <mxCell id="Xa-99icX76XOGyTgmu79-145" value="" style="endArrow=classic;html=1;rounded=0;dashed=1;strokeColor=#237528;entryX=0.25;entryY=0;entryDx=0;entryDy=0;exitX=0.75;exitY=1;exitDx=0;exitDy=0;strokeWidth=3;" edge="1" parent="1" source="Xa-99icX76XOGyTgmu79-91" target="Xa-99icX76XOGyTgmu79-105">
          <mxGeometry width="50" height="50" relative="1" as="geometry">
            <mxPoint x="1360" y="220" as="sourcePoint" />
            <mxPoint x="1090" y="-60" as="targetPoint" />
          </mxGeometry>
        </mxCell>
        <mxCell id="Xa-99icX76XOGyTgmu79-146" value="" style="endArrow=classic;html=1;rounded=0;dashed=1;strokeColor=#237528;entryX=0.75;entryY=0;entryDx=0;entryDy=0;exitX=0.25;exitY=1;exitDx=0;exitDy=0;strokeWidth=3;" edge="1" parent="1" source="Xa-99icX76XOGyTgmu79-91" target="Xa-99icX76XOGyTgmu79-106">
          <mxGeometry width="50" height="50" relative="1" as="geometry">
            <mxPoint x="1420" y="150" as="sourcePoint" />
            <mxPoint x="1480" y="405" as="targetPoint" />
          </mxGeometry>
        </mxCell>
        <mxCell id="Xa-99icX76XOGyTgmu79-147" value="менеджер" style="rounded=1;whiteSpace=wrap;html=1;fillColor=#EDFFF0;strokeColor=#00AD12;" vertex="1" parent="1">
          <mxGeometry x="1380" y="-982.5" width="120" height="60" as="geometry" />
        </mxCell>
        <mxCell id="Xa-99icX76XOGyTgmu79-150" value="" style="endArrow=classic;html=1;rounded=0;dashed=1;strokeColor=#237528;exitX=1;exitY=0;exitDx=0;exitDy=0;entryX=0;entryY=1;entryDx=0;entryDy=0;strokeWidth=1;" edge="1" parent="1" source="Xa-99icX76XOGyTgmu79-114" target="mVXSHvILS6m2LbovHZ73-198">
          <mxGeometry width="50" height="50" relative="1" as="geometry">
            <mxPoint x="509" y="-470" as="sourcePoint" />
            <mxPoint x="443" y="-612" as="targetPoint" />
          </mxGeometry>
        </mxCell>
        <mxCell id="Xa-99icX76XOGyTgmu79-153" value="задача" style="rounded=1;whiteSpace=wrap;html=1;strokeColor=#00AD12;fillColor=#EDFFF0;" vertex="1" parent="1">
          <mxGeometry x="1328" y="-455" width="120" height="60" as="geometry" />
        </mxCell>
        <mxCell id="Xa-99icX76XOGyTgmu79-154" value="" style="endArrow=classic;html=1;rounded=0;dashed=1;strokeColor=#237528;exitX=1;exitY=1;exitDx=0;exitDy=0;entryX=0;entryY=0.25;entryDx=0;entryDy=0;strokeWidth=3;" edge="1" parent="1" source="mVXSHvILS6m2LbovHZ73-108" target="Xa-99icX76XOGyTgmu79-153">
          <mxGeometry width="50" height="50" relative="1" as="geometry">
            <mxPoint x="1532" y="-320" as="sourcePoint" />
            <mxPoint x="1250" y="-10" as="targetPoint" />
          </mxGeometry>
        </mxCell>
      </root>
    </mxGraphModel>
  </diagram>
</mxfile>
